<svg xmlns="http://www.w3.org/2000/svg" width="216" height="199" viewBox="0 0 216 199" fill="none"><path d="M0 2.41992H215.97" stroke="black" stroke-width="3.48"/><path d="M2.75 24.48C3.11 26.2 4.82999 31.9799 4.82999 37.6699V75.7798C4.82999 81.3798 3.11 87.2499 2.75 88.8799V89.2402H30.84C43.03 89.2402 53.42 83.3699 53.42 72.1699C53.42 62.5999 45.74 57.8098 37.8 55.8198C44.48 53.4698 50.44 48.7802 50.44 40.7402C50.44 31.5302 42.13 24.21 30.39 24.21H2.75V24.48ZM26.24 54.2798H16.12V27.73H26.69C34.73 27.73 38.52 34.1402 38.52 40.7402C38.52 48.0602 34.28 54.29 26.24 54.29V54.2798ZM27.14 85.6201H16.12V57.98L17.11 57.8901H27.13C36.07 57.8901 41.58 63.4002 41.58 72.1602C41.58 80.9202 37.15 85.6201 27.13 85.6201H27.14ZM81.29 57.3501C88.15 57.3501 95.38 60.6001 97.28 61.1401H97.64V50.3901H97.28C95.38 50.9301 88.16 54.27 81.29 54.27H73.52V27.6299H87.97C95.01 27.6299 102.42 36.2999 104.41 37.3799H104.86V24.1899H60.15V24.46C60.51 26.18 62.23 31.9599 62.23 37.6499V75.7598C62.23 81.3598 60.51 87.2299 60.15 88.8599V89.2202H105.13V75.9399H104.68C102.69 77.0199 95.29 85.6899 88.24 85.6899H73.52V57.3301H81.29V57.3501Z" fill="black"/><path d="M0 197.25H215.97" stroke="black" stroke-width="3.48"/><path d="M26.33 174.58C38.61 174.58 49.63 168.53 49.63 155.7C49.63 147.48 44.75 140.35 30.93 135.11C20.36 131.32 12.23 127.52 12.23 120.84C12.23 115.78 16.84 111.36 23.79 111.36C32.28 111.36 40.86 119.49 46.82 125.9H47.18V113.17C41.85 110.73 33.81 107.66 25.32 107.66C10.33 107.66 2.10999 116.51 2.10999 125.99C2.10999 135.47 9.69999 141.07 21.8 145.14C31.92 148.57 39.32 152.37 39.32 160.13C39.32 166.81 33.99 170.79 27.22 170.79C17.56 170.79 9.52001 162.03 3.29001 155.07H2.75V168.44C10.88 172.14 18.92 174.58 26.32 174.58H26.33ZM95.73 173.59H113.25V173.23C112.44 172.6 108.19 168.35 104.94 164.11L82.09 135.75L102.86 115.88C106.11 112.9 108.82 110.46 111.35 108.56V108.2H95.64V108.65C96.36 111 96.18 117.14 90.22 122.83L74.69 137.82L72.34 140.08C71.98 140.35 72.07 140.44 72.25 140.71L90.95 163.92C93.84 167.98 94.83 172.68 95.74 173.58L95.73 173.59ZM72.61 173.23C72.25 171.6 70.53 165.73 70.53 160.13V122.02C70.53 116.33 72.25 110.55 72.61 108.83V108.56H57.17V108.83C57.53 110.55 59.25 116.33 59.25 122.02V160.13C59.25 165.73 57.53 171.6 57.17 173.23V173.59H72.61V173.23Z" fill="black"/></svg>