<svg xmlns="http://www.w3.org/2000/svg" width="486" height="224" viewBox="0 0 486 224" fill="none"><path d="M148.046 25.8668C155.241 25.9372 161.247 33.9754 163.296 37.0337H163.826V26.732C158.279 24.3376 152.333 23.0801 147.846 23.0801C134.904 23.0801 124.471 33.6434 124.471 47.6675C124.471 61.6915 134.774 72.3253 147.116 72.3253C154.312 72.3253 160.917 69.7297 165.145 67.7378V57.9692C165.145 53.7842 166.064 49.5286 166.534 48.261V48.0598H153.332V48.261C153.862 49.5286 156.9 53.7741 156.9 57.9692V67.0135C154.322 68.5426 151.423 69.609 148.315 69.609C140.131 69.5386 133.925 60.766 133.925 47.6071C133.925 34.4482 139.731 25.8064 148.056 25.8768L148.046 25.8668Z" fill="black"/><path d="M83.3867 71.3296V71.5911H94.6795V71.3296C94.4197 70.1324 93.1605 65.8165 93.1605 61.6918V49.5289H97.9774C101.605 50.3237 104.843 53.6536 107.152 59.0359C109.2 63.7542 111.909 69.8004 113.687 71.6012H123.591V71.3396C119.694 67.4161 118.504 63.3015 114.547 55.6556C112.498 51.8629 109.6 49.6697 105.902 48.6738C113.428 47.879 118.774 43.7543 118.774 36.2493C118.774 28.7443 112.638 23.7544 103.394 23.7544H83.3867V23.9556C83.6466 25.2232 84.9058 29.4687 84.9058 33.6638V61.7119C84.9058 65.8367 83.6466 70.1525 83.3867 71.3497V71.3296ZM94.6096 49.4685C94.8094 49.4685 95.0093 49.3981 95.1992 49.3981C94.9993 49.4685 94.7994 49.4685 94.6096 49.4685ZM93.1605 26.0683H100.686C106.562 26.0683 109.93 29.9214 109.93 36.6316C109.93 43.3418 106.232 47.0037 100.356 47.0037H93.1605V26.0683Z" fill="black"/><path d="M2.84839 71.3294V71.591H23.3853C32.2996 71.591 39.8948 67.2751 39.8948 59.0257C39.8948 51.9835 34.2784 48.4624 28.4721 46.9936C33.3589 45.2632 37.7162 41.8125 37.7162 35.897C37.7162 29.1164 31.64 23.7341 23.0555 23.7341H2.84839V23.9353C3.10822 25.2029 4.36742 29.4484 4.36742 33.6435V61.6917C4.36742 65.8164 3.10822 70.1323 2.84839 71.3294ZM12.6122 26.3297H20.3372C26.2135 26.3297 28.9817 31.048 28.9817 35.897C28.9817 41.2793 25.8737 45.8668 19.9975 45.8668H12.6022V26.3297H12.6122ZM12.6122 48.6032L13.3417 48.5328H20.667C27.2029 48.5328 31.2303 52.5871 31.2303 59.0357C31.2303 65.4844 27.9924 68.9351 20.667 68.9351H12.6122V48.5931V48.6032Z" fill="black"/><path d="M44.7515 71.3294V71.591H77.6305V61.8224H77.3007C75.8516 62.6172 70.4351 69.0055 65.2884 69.0055H54.5252V48.1304H60.2016C65.2184 48.1304 70.5051 50.5247 71.8842 50.9171H72.144V43.0097H71.8842C70.4951 43.4121 65.2184 45.8668 60.2016 45.8668H54.5252V26.2592H65.0885C70.2352 26.2592 75.6518 32.6375 77.1009 33.4423H77.4306V23.7341H44.7515V23.9353C45.0113 25.2029 46.2705 29.4484 46.2705 33.6435V61.6917C46.2705 65.8164 45.0213 70.1323 44.7515 71.3294Z" fill="black"/><path d="M187.57 25.8064C193.776 25.8064 200.052 31.7923 204.41 36.5106H204.669V27.1344C200.772 25.3436 194.896 23.0801 188.69 23.0801C177.727 23.0801 171.72 29.5891 171.72 36.571C171.72 43.5528 177.267 47.6675 186.111 50.6655C193.507 53.1906 198.923 55.9874 198.923 61.7016C198.923 66.6211 195.026 69.5486 190.079 69.5486C183.013 69.5486 177.137 63.1 172.58 57.9793H172.18V67.8183C178.126 70.5446 184.003 72.3354 189.409 72.3354C198.393 72.3354 206.448 67.8786 206.448 58.4421C206.448 52.3958 202.881 47.1443 192.777 43.2912C185.052 40.5045 179.106 37.7078 179.106 32.7883C179.106 29.066 182.474 25.8064 187.56 25.8064H187.57Z" fill="black"/><path d="M209.576 35.1023H209.836C211.225 34.0359 216.502 26.4001 221.519 26.4001H225.476V61.6917C225.476 65.8164 224.217 70.1323 223.957 71.3294V71.591H235.25V71.3294C234.99 70.1323 233.731 65.8164 233.731 61.6917V26.4001H237.558C242.645 26.4001 247.862 34.0459 249.241 35.1023H249.501V23.7341H209.556V35.1023H209.576Z" fill="black"/><path d="M253.838 71.3294V71.591H286.717V61.8224H286.387C284.938 62.6172 279.522 69.0055 274.375 69.0055H263.612V48.1304H269.288C274.305 48.1304 279.592 50.5247 280.971 50.9171H281.231V43.0097H280.971C279.582 43.4121 274.305 45.8668 269.288 45.8668H263.612V26.2592H274.175C279.322 26.2592 284.738 32.6375 286.188 33.4423H286.517V23.7341H253.838V23.9353C254.098 25.2029 255.357 29.4484 255.357 33.6435V61.6917C255.357 65.8164 254.098 70.1323 253.838 71.3294Z" fill="black"/><path d="M292.833 71.3294V71.591H304.126V71.3294C303.866 70.1323 302.607 65.8164 302.607 61.6917V33.6435C302.607 29.4584 303.866 25.2029 304.126 23.9353V23.7341H292.833V23.9353C293.093 25.2029 294.352 29.4484 294.352 33.6435V61.6917C294.352 65.8164 293.093 70.1323 292.833 71.3294Z" fill="black"/><path d="M310.342 71.2691V71.601H319.126V71.2691C318.667 69.6091 316.158 63.4924 316.158 57.577V31.6516L343.231 71.601H348.578V37.7079C348.578 31.7924 351.086 25.6757 351.546 24.0862V23.7542H342.761V24.0862C343.221 25.6858 345.729 31.7924 345.729 37.7079V60.5045L320.905 23.7441H310.872V24.0057C311.331 25.5349 313.31 30.2532 313.31 34.901V57.5669C313.31 63.4823 310.802 69.599 310.342 71.259V71.2691Z" fill="black"/><path d="M486 149.639H0V152.456H486V149.639Z" fill="black"/><path d="M203.96 85.8866C204.49 87.617 204.36 92.1341 200.002 96.3192L188.65 107.355L186.931 109.015C186.671 109.216 186.731 109.277 186.861 109.478L200.532 126.56C202.641 129.548 203.37 133.009 204.03 133.673H216.842V133.412C216.252 132.949 213.144 129.82 210.766 126.701L194.066 105.826L209.257 91.2085C211.635 89.0154 213.614 87.2246 215.463 85.8262V85.5647H203.97V85.8967L203.96 85.8866Z" fill="black"/><path d="M104.323 134.407C116.476 134.407 126.509 124.035 126.509 109.548C126.509 95.0615 116.476 85.1521 104.323 85.1521C92.1712 85.1521 82.2075 95.1219 82.2075 109.548C82.2075 123.975 92.1112 134.407 104.323 134.407ZM104.323 87.7476C112.578 87.7476 117.265 98.985 117.265 109.478C117.265 119.971 112.578 131.812 104.323 131.812C96.0687 131.812 91.4516 120.242 91.4516 109.609C91.4516 98.975 96.1386 87.7376 104.323 87.7376V87.7476Z" fill="black"/><path d="M411.298 133.411V133.673H422.591V133.411C422.331 132.214 421.071 127.898 421.071 123.774V95.7256C421.071 91.5405 422.331 87.2849 422.591 86.0173V85.8162H411.298V86.0173C411.558 87.2849 412.817 91.5304 412.817 95.7256V123.774C412.817 127.898 411.558 132.214 411.298 133.411Z" fill="black"/><path d="M378.688 107.355L376.969 109.015C376.71 109.216 376.77 109.277 376.9 109.478L390.561 126.56C392.68 129.548 393.399 133.009 394.059 133.673H406.87V133.412C406.281 132.949 403.173 129.82 400.794 126.701L384.095 105.826L399.275 91.2085C401.654 89.0154 403.633 87.2246 405.481 85.8262V85.5647H393.999V85.8967C394.528 87.627 394.388 92.1441 390.031 96.3292L378.678 107.365L378.688 107.355Z" fill="black"/><path d="M365.877 133.411V133.673H377.169V133.411C376.91 132.214 375.65 127.898 375.65 123.774V95.7256C375.65 91.5405 376.91 87.2849 377.169 86.0173V85.8162H365.877V86.0173C366.136 87.2849 367.396 91.5304 367.396 95.7256V123.774C367.396 127.898 366.136 132.214 365.877 133.411Z" fill="black"/><path d="M175.838 133.411V133.673H187.131V133.411C186.871 132.214 185.612 127.898 185.612 123.774V95.7256C185.612 91.5405 186.871 87.2849 187.131 86.0173V85.8162H175.838V86.0173C176.098 87.2849 177.357 91.5304 177.357 95.7256V123.774C177.357 127.898 176.098 132.214 175.838 133.411Z" fill="black"/><path d="M82.1776 85.8262V85.5647H70.6849V85.8967C71.2146 87.627 71.0847 92.1441 66.7274 96.3292L55.3747 107.365L53.6558 109.025C53.3959 109.227 53.4559 109.287 53.5858 109.488L67.2571 126.57C69.3658 129.558 70.0953 133.019 70.7549 133.683H83.5667V133.422C82.9771 132.959 79.869 129.83 77.4906 126.711L60.7812 105.836L75.9715 91.2186C78.35 89.0254 80.3288 87.2347 82.1776 85.8363V85.8262Z" fill="black"/><path d="M237.588 85.1624C225.376 85.1624 215.473 95.1321 215.473 109.559C215.473 123.985 225.376 134.418 237.588 134.418C249.801 134.418 259.774 124.045 259.774 109.559C259.774 95.0718 249.741 85.1624 237.588 85.1624ZM237.588 131.812C229.404 131.812 224.717 120.243 224.717 109.609C224.717 98.9751 229.404 87.7378 237.588 87.7378C245.773 87.7378 250.53 98.9751 250.53 109.468C250.53 119.961 245.843 131.802 237.588 131.802V131.812Z" fill="black"/><path d="M167.023 98.3213C167.023 90.6755 160.887 85.8264 151.643 85.8264H131.636V86.0276C131.896 87.2952 133.155 91.5407 133.155 95.7358V123.784C133.155 127.909 131.896 132.225 131.636 133.422V133.683H142.929V133.422C142.669 132.225 141.41 127.909 141.41 123.784V111.621H146.227C149.854 112.416 153.092 115.746 155.401 121.128C157.45 125.846 160.158 131.893 161.937 133.693H171.84V133.432C167.943 129.508 166.754 125.394 162.796 117.748C160.747 113.955 157.849 111.762 154.152 110.766C161.677 109.971 167.023 105.846 167.023 98.3414V98.3213ZM142.849 111.541C143.049 111.541 143.249 111.47 143.438 111.47C143.239 111.541 143.039 111.541 142.849 111.541ZM148.595 109.086H141.4V88.1504H148.925C154.801 88.1504 158.169 92.0035 158.169 98.7137C158.169 105.424 154.471 109.086 148.595 109.086Z" fill="black"/><path d="M42.563 133.411V133.673H53.8558V133.411C53.596 132.214 52.3368 127.898 52.3368 123.774V95.7256C52.3368 91.5405 53.596 87.2849 53.8558 86.0173V85.8162H42.563V86.0173C42.8228 87.2849 44.082 91.5304 44.082 95.7256V123.774C44.082 127.898 42.8228 132.214 42.563 133.411Z" fill="black"/><path d="M285.178 86.0878C286.038 87.3554 288.346 91.4097 289.665 95.5244L290.525 98.1199L282.54 123.904L273.496 96.1179C272.046 91.802 273.036 87.3453 273.296 86.0173V85.8162H259.954V86.0173C260.814 87.3453 263.062 91.3996 264.381 95.5244L277.123 133.673H282.47L292.044 102.637L302.337 133.673H307.684L319.436 95.5847C320.685 91.46 323.134 87.0737 323.794 86.0777V85.8162H315.679V86.0173C316.138 87.6169 317.328 92.8684 315.679 98.0495L307.754 123.904L298.709 96.1179C297.26 91.802 298.18 87.4157 298.45 86.0777V85.8162H285.178V86.0777V86.0878Z" fill="black"/><path d="M16.7792 112.737C24.1745 115.263 29.5911 118.059 29.5911 123.774C29.5911 128.693 25.6935 131.621 20.7467 131.621C13.6812 131.621 7.80497 125.172 3.24787 120.051H2.84812V129.89C8.79433 132.617 14.6706 134.407 20.0771 134.407C29.0514 134.407 37.1163 129.951 37.1163 120.514C37.1163 114.468 33.5485 109.216 23.445 105.363C15.7199 102.577 9.77371 99.7798 9.77371 94.8603C9.77371 91.138 13.1416 87.8784 18.2283 87.8784C24.4344 87.8784 30.7103 93.8643 35.0676 98.5826H35.3274V89.2064C31.4299 87.4157 25.5536 85.1521 19.3476 85.1521C8.3846 85.1521 2.37842 91.6611 2.37842 98.643C2.37842 105.625 7.92487 109.739 16.7692 112.737H16.7792Z" fill="black"/><path d="M341.542 87.8784C347.748 87.8784 354.024 93.8643 358.381 98.5826H358.641V89.2064C354.744 87.4157 348.867 85.1521 342.661 85.1521C331.698 85.1521 325.692 91.6611 325.692 98.643C325.692 105.625 331.239 109.739 340.083 112.737C347.478 115.263 352.895 118.059 352.895 123.774C352.895 128.693 348.997 131.621 344.05 131.621C336.985 131.621 331.109 125.172 326.552 120.051H326.162V129.89C332.108 132.617 337.974 134.407 343.391 134.407C352.375 134.407 360.43 129.951 360.43 120.514C360.43 114.468 356.862 109.216 346.759 105.363C339.034 102.577 333.087 99.7798 333.087 94.8603C333.087 91.138 336.455 87.8784 341.542 87.8784Z" fill="black"/><path d="M27.6724 200.745V200.896H37.566C44.4716 200.896 50.4378 195.534 50.4378 187.063C50.4378 178.592 44.4716 173.532 37.566 173.532H27.6724V173.643C27.8223 174.367 28.5418 176.802 28.5418 179.196V195.232C28.5418 197.586 27.8223 200.061 27.6724 200.745ZM33.2588 174.971H36.3168C42.0932 174.971 45.0813 180.484 45.1113 187.063C45.1512 193.864 42.0932 199.417 36.3168 199.417H33.2588V174.971Z" fill="black"/><path d="M57.763 173.532H50.0979V173.683C50.5476 174.447 51.9467 176.912 52.8562 179.387L60.971 200.906H65.0883L72.1838 180.645C73.2431 177.647 74.9421 174.297 75.3218 173.653V173.542H70.6048V173.693C70.8647 174.608 71.5842 177.647 70.5249 180.574L64.6386 197.335L58.0328 179.427C57.0934 176.993 57.6131 174.447 57.773 173.653V173.542L57.763 173.532Z" fill="black"/><path d="M3.36786 193.793C2.30854 196.761 1.09931 199.498 0.309814 200.785V200.896H5.14673V200.705C4.91687 199.789 4.04743 196.791 5.06677 193.864L5.85628 191.58H16.1297L17.4089 195.001C18.3183 197.435 17.8586 199.94 17.7087 200.745V200.896H25.2639V200.785C24.2845 199.307 23.455 197.476 22.5456 195.041L14.4608 173.522H8.79441V173.633C8.98429 174.055 9.77378 175.916 9.13419 177.667L3.35787 193.783L3.36786 193.793ZM10.8831 177.516L15.5701 189.981H6.43591L10.8931 177.516H10.8831Z" fill="black"/><path d="M206.988 187.104C206.988 178.894 201.252 173.15 194.296 173.15C187.341 173.15 181.644 178.854 181.644 187.104C181.644 195.353 187.311 201.319 194.296 201.319C201.282 201.319 206.988 195.393 206.988 187.104ZM186.941 187.134C186.941 181.128 189.619 174.629 194.306 174.629C198.993 174.629 201.711 181.057 201.711 187.063C201.711 193.069 199.033 199.84 194.306 199.84C189.579 199.84 186.941 193.23 186.941 187.144V187.134Z" fill="black"/><path d="M100.786 187.104C100.786 178.894 95.0494 173.15 88.0938 173.15C81.1383 173.15 75.4419 178.854 75.4419 187.104C75.4419 195.353 81.1083 201.319 88.0938 201.319C95.0794 201.319 100.786 195.393 100.786 187.104ZM80.7285 187.134C80.7285 181.128 83.4068 174.629 88.0938 174.629C92.7808 174.629 95.4991 181.057 95.4991 187.063C95.4991 193.069 92.8208 199.84 88.0938 199.84C83.3668 199.84 80.7285 193.23 80.7285 187.144V187.134Z" fill="black"/><path d="M156.34 200.745V200.896H166.234C173.139 200.896 179.106 195.534 179.106 187.063C179.106 178.592 173.139 173.532 166.234 173.532H156.34V173.643C156.49 174.367 157.21 176.802 157.21 179.196V195.232C157.21 197.586 156.49 200.061 156.34 200.745ZM161.927 174.971H164.985C170.761 174.971 173.749 180.484 173.779 187.063C173.819 193.864 170.761 199.417 164.985 199.417H161.927V174.971Z" fill="black"/><path d="M218.641 174.709C222.188 174.709 225.776 178.13 228.274 180.826H228.424V175.464C226.196 174.438 222.838 173.15 219.29 173.15C213.024 173.15 209.586 176.872 209.586 180.866C209.586 184.86 212.754 187.214 217.821 188.924C222.048 190.373 225.146 191.963 225.146 195.232C225.146 198.049 222.918 199.719 220.09 199.719C216.052 199.719 212.684 196.027 210.086 193.11H209.856V198.733C213.254 200.293 216.612 201.319 219.71 201.319C224.847 201.319 229.454 198.774 229.454 193.371C229.454 189.91 227.415 186.912 221.639 184.699C217.221 183.1 213.824 181.51 213.824 178.693C213.824 176.56 215.752 174.699 218.661 174.699L218.641 174.709Z" fill="black"/><path d="M132.036 193.793C130.976 196.761 129.767 199.498 128.978 200.785V200.896H133.815V200.705C133.585 199.789 132.715 196.791 133.735 193.864L134.524 191.58H144.798L146.077 195.001C146.986 197.435 146.526 199.94 146.377 200.745V200.896H153.932V200.785C152.952 199.307 152.123 197.476 151.213 195.041L143.129 173.522H137.462V173.633C137.652 174.055 138.442 175.916 137.802 177.667L132.026 193.783L132.036 193.793ZM139.541 177.516L144.228 189.981H135.094L139.551 177.516H139.541Z" fill="black"/><path d="M116.825 174.749C120.943 174.79 124.381 179.387 125.55 181.138H125.85V175.242C122.682 173.874 119.284 173.15 116.715 173.15C109.31 173.15 103.344 179.196 103.344 187.214C103.344 195.232 109.23 201.319 116.296 201.319C120.413 201.319 124.191 199.84 126.609 198.693V193.11C126.609 190.715 127.139 188.281 127.399 187.556V187.446H119.843V187.556C120.143 188.281 121.882 190.715 121.882 193.11V198.281C120.413 199.156 118.744 199.759 116.975 199.759C112.288 199.719 108.741 194.699 108.741 187.174C108.741 179.649 112.058 174.709 116.825 174.739V174.749Z" fill="black"/><path fill-rule="evenodd" clip-rule="evenodd" d="M485.689 3.67925L0.12915 3.40764L0.130712 0.600098L485.691 0.871715L485.689 3.67925Z" fill="black"/><path fill-rule="evenodd" clip-rule="evenodd" d="M485.689 152.572L0.12915 152.3L0.130712 149.493L485.691 149.764L485.689 152.572Z" fill="black"/><path fill-rule="evenodd" clip-rule="evenodd" d="M485.689 224L0.12915 223.728L0.130713 220.921L485.691 221.192L485.689 224Z" fill="black"/></svg>